<?xml version="1.0" encoding="utf-8"?>
<!-- Generator: Adobe Illustrator 22.0.1, SVG Export Plug-In . SVG Version: 6.00 Build 0)  -->
<svg version="1.1" id="Capa_1" xmlns="http://www.w3.org/2000/svg" xmlns:xlink="http://www.w3.org/1999/xlink" x="0px" y="0px"
	 viewBox="0 0 234 234" style="enable-background:new 0 0 234 234;" xml:space="preserve">
<style type="text/css">
	.st0{fill:none;stroke:#000000;stroke-width:4;stroke-miterlimit:10;}
</style>
<path id="contorno" class="st0" d="M220.8,182.9v28.4H13.1v-28.4 M13.1,49.5V22.7h207.8v26.8"/>
<path id="EC" d="M65.5,145.5h13.8c4.4,0,8.4-0.1,12.1-0.4c3.8-0.2,7-1.1,9.7-2.7c2.8-1.6,4.9-4,6.5-7.4c1.6-3.4,2.4-8.3,2.4-14.6
	h2.4v28H41.3v-2.4h7.1V56h-7.1v-2.4h71.1l0.1,23.3h-2.4c-0.8-5.2-2.1-9.2-4-12c-1.9-2.8-4.3-4.8-7.1-6.1c-2.8-1.3-5.9-2-9.5-2.2
	c-3.6-0.1-7.4-0.2-11.4-0.2H65.5v41.9h3.7c3,0,5.5-0.1,7.7-0.3c2.2-0.2,4.1-0.8,5.6-1.8s2.6-2.7,3.4-4.9c0.8-2.2,1.2-5.3,1.3-9.3
	h2.3v35.8h-2.3c-0.1-3.6-0.4-6.5-1.1-8.6c-0.6-2.2-1.5-3.8-2.6-4.8c-1.1-1.1-2.5-1.8-4.1-2.2c-1.6-0.3-3.5-0.5-5.5-0.5h-8.4
	L65.5,145.5L65.5,145.5L65.5,145.5z M185.4,148.3c0-0.9-0.1-1.7-0.1-2.7c-0.1-0.9-0.3-1.8-0.6-2.6c-0.3-0.8-0.7-1.5-1.2-2.1
	c-0.5-0.6-1.2-0.9-2.1-0.9c-0.5,0-1.1,0.2-1.9,0.7c-0.8,0.5-1.7,1.1-2.8,1.8c-1.9,1.5-4.3,3.1-7.3,4.7c-3,1.7-6.5,2.5-10.6,2.5
	c-5.6,0-10.6-1.2-15.1-3.8c-4.5-2.5-8.3-5.9-11.4-10.1c-3.1-4.3-5.5-9.2-7.2-14.9c-1.7-5.7-2.5-11.8-2.5-18.2
	c0-6.4,0.9-12.7,2.5-18.8c1.7-6.1,4-11.5,7.2-16.2s7-8.4,11.5-11.3s9.8-4.3,15.6-4.3c2.5,0,4.8,0.4,6.8,1.2c2,0.8,3.8,1.7,5.5,2.6
	c1.7,0.9,3.3,1.8,4.8,2.6c1.5,0.8,3.1,1.2,4.8,1.2c1.1,0,2-0.3,2.5-0.9c0.6-0.6,0.9-1.6,1.1-2.9h2.5v28.7h-2.9
	c-0.2-3.4-0.9-6.8-2.2-10.3c-1.3-3.5-2.9-6.6-4.9-9.4c-2-2.8-4.3-5.1-7-6.8s-5.6-2.6-8.6-2.6s-5.6,0.8-7.8,2.4
	c-2.2,1.6-4,3.8-5.5,6.4c-1.5,2.6-2.7,5.7-3.6,9s-1.6,6.7-2.2,10.2s-0.9,6.9-1,10.2c-0.1,3.3-0.2,6.3-0.2,8.8
	c0,4.8,0.3,9.7,0.9,14.7c0.6,5,1.7,9.5,3.4,13.7c1.7,4.1,4.1,7.4,7.2,10.1c3.1,2.6,7.2,3.9,12.4,3.9c2.8,0,5.2-1,7.6-3
	c2.3-2.1,4.3-4.6,5.9-7.7c1.7-3.1,3.1-6.4,4.2-9.9c1.1-3.6,1.8-6.8,2.2-9.9h2.2v33.8L185.4,148.3L185.4,148.3L185.4,148.3z"/>
<path id="foto" d="M29.1,179.5h1.2v0.3h-4.7v-0.3h1.2v-10.7h-1.2v-0.3h4.6c0.5,0,1,0.1,1.6,0.1c0.5,0.1,1.1,0.2,1.6,0.4
	c0.4,0.2,0.9,0.5,1.2,0.9c0.3,0.4,0.4,0.9,0.4,1.6c0,0.6-0.1,1.1-0.4,1.5c-0.3,0.4-0.6,0.8-1,1c-0.4,0.3-0.9,0.4-1.4,0.5
	c-0.5,0.1-1,0.2-1.5,0.2c-0.3,0-0.5-0.1-0.8-0.1c-0.3-0.1-0.5-0.1-0.8-0.3L29.1,179.5z M29.1,174.2c0.4,0.2,0.8,0.3,1.2,0.3
	c0.4,0,0.8-0.1,1.1-0.2c0.3-0.1,0.6-0.3,0.8-0.6c0.2-0.3,0.4-0.5,0.5-0.9c0.1-0.3,0.2-0.7,0.2-1.1c0-0.5-0.1-1-0.2-1.4
	c-0.2-0.4-0.4-0.7-0.7-0.9c-0.3-0.2-0.6-0.4-1-0.5c-0.4-0.1-0.9-0.2-1.3-0.2c-0.1,0-0.1,0-0.2,0.1c-0.1,0-0.2,0.1-0.3,0.1
	L29.1,174.2z M45.5,174.3v5.3h1.3v0.3h-4.9v-0.3h1.2L43,168.9h-1.1v-0.3h4.9v0.3h-1.3v5h5.4v-5h-1.2v-0.3h4.9v0.3h-1.2v10.7h1.2v0.3
	h-4.9v-0.3h1.2v-5.3H45.5L45.5,174.3z M66.9,168.4c0.8,0,1.5,0.2,2.1,0.5c0.6,0.4,1.2,0.8,1.7,1.3c0.5,0.6,0.8,1.2,1.1,1.9
	c0.3,0.7,0.4,1.4,0.4,2.1s-0.1,1.4-0.4,2.1c-0.3,0.7-0.6,1.3-1.1,1.8c-0.4,0.5-1,1-1.7,1.3c-0.6,0.3-1.3,0.5-2.1,0.5
	c-0.8,0-1.5-0.2-2.1-0.5c-0.6-0.4-1.2-0.8-1.7-1.3c-0.4-0.5-0.8-1.2-1.1-1.9c-0.3-0.7-0.4-1.4-0.4-2.2c0-0.7,0.1-1.4,0.4-2.1
	c0.3-0.7,0.6-1.3,1.1-1.8c0.5-0.5,1-1,1.7-1.3C65.5,168.5,66.2,168.4,66.9,168.4z M67,168.6c-0.4,0-0.8,0.1-1.1,0.3
	c-0.3,0.2-0.5,0.4-0.8,0.8c-0.2,0.3-0.4,0.6-0.5,1c-0.1,0.4-0.2,0.8-0.3,1.2c-0.1,0.4-0.1,0.8-0.2,1.2c-0.1,0.4-0.1,0.8-0.1,1.1
	c0,0.3,0,0.7,0.1,1.1c0.1,0.4,0.1,0.8,0.1,1.2c0.1,0.4,0.2,0.8,0.3,1.2c0.1,0.4,0.3,0.8,0.5,1.1c0.2,0.3,0.4,0.5,0.8,0.8
	s0.7,0.3,1.1,0.3s0.8-0.1,1.1-0.3c0.3-0.2,0.5-0.4,0.8-0.8s0.4-0.6,0.4-1.1c0.1-0.4,0.2-0.8,0.2-1.2c0.1-0.4,0.1-0.8,0.1-1.2
	c0-0.4,0.1-0.8,0.1-1.1c0-0.3,0-0.6-0.1-1c-0.1-0.4-0.1-0.8-0.1-1.2s-0.2-0.8-0.3-1.2c-0.1-0.4-0.3-0.8-0.5-1.1s-0.4-0.6-0.7-0.8
	C67.7,168.7,67.3,168.6,67,168.6z M82.9,168.9h-0.3c-0.6,0-1.2,0.1-1.6,0.1c-0.4,0.1-0.8,0.2-1,0.5c-0.3,0.2-0.4,0.5-0.5,0.9
	c-0.1,0.4-0.2,0.9-0.2,1.6h-0.4c0.1-0.6,0.1-1.2,0.1-1.7c0.1-0.5,0.1-1.1,0.1-1.7h9.9c0,0.6,0.1,1.1,0.1,1.7c0,0.5,0.1,1.1,0.1,1.7
	h-0.3c0-0.7-0.1-1.2-0.2-1.7c-0.1-0.4-0.3-0.7-0.5-0.9c-0.3-0.2-0.6-0.4-1.1-0.4c-0.4-0.1-1-0.1-1.7-0.1v10.7h1.3v0.3h-5.1v-0.3h1.4
	L82.9,168.9L82.9,168.9z M101.2,168.4c0.8,0,1.5,0.2,2.1,0.5c0.6,0.4,1.2,0.8,1.7,1.3s0.8,1.2,1.1,1.9c0.3,0.7,0.4,1.4,0.4,2.1
	s-0.1,1.4-0.4,2.1c-0.3,0.7-0.6,1.3-1.1,1.8c-0.4,0.5-1,1-1.7,1.3c-0.6,0.3-1.3,0.5-2.1,0.5c-0.8,0-1.5-0.2-2.1-0.5
	c-0.6-0.4-1.2-0.8-1.7-1.3c-0.4-0.5-0.8-1.2-1.1-1.9c-0.3-0.7-0.4-1.4-0.4-2.2c0-0.7,0.1-1.4,0.4-2.1c0.3-0.7,0.6-1.3,1.1-1.8
	c0.5-0.5,1-1,1.7-1.3C99.8,168.5,100.5,168.4,101.2,168.4z M101.3,168.6c-0.4,0-0.8,0.1-1.1,0.3c-0.3,0.2-0.5,0.4-0.8,0.8
	c-0.2,0.3-0.4,0.6-0.5,1c-0.1,0.4-0.2,0.8-0.3,1.2c-0.1,0.4-0.1,0.8-0.2,1.2c-0.1,0.4-0.1,0.8-0.1,1.1c0,0.3,0,0.7,0.1,1.1
	c0.1,0.4,0.1,0.8,0.1,1.2c0.1,0.4,0.2,0.8,0.3,1.2c0.1,0.4,0.3,0.8,0.5,1.1s0.4,0.5,0.8,0.8c0.3,0.2,0.7,0.3,1.1,0.3
	c0.4,0,0.8-0.1,1.1-0.3c0.3-0.2,0.5-0.4,0.8-0.8c0.2-0.3,0.4-0.6,0.4-1.1c0.1-0.4,0.2-0.8,0.2-1.2c0.1-0.4,0.1-0.8,0.1-1.2
	c0-0.4,0.1-0.8,0.1-1.1c0-0.3,0-0.6-0.1-1c-0.1-0.4-0.1-0.8-0.1-1.2c-0.1-0.4-0.2-0.8-0.3-1.2c-0.1-0.4-0.3-0.8-0.5-1.1
	c-0.2-0.3-0.4-0.6-0.7-0.8C102,168.7,101.6,168.6,101.3,168.6z M123.1,172.2h-0.4c-0.1-0.4-0.2-0.8-0.3-1.2c-0.2-0.4-0.4-0.8-0.6-1
	s-0.5-0.5-0.9-0.7c-0.4-0.2-0.8-0.3-1.2-0.3c-0.8,0-1.3,0.2-1.7,0.5c-0.4,0.4-0.8,0.8-1,1.3c-0.2,0.5-0.4,1.1-0.4,1.7
	c-0.1,0.6-0.1,1.2-0.1,1.7c0,0.3,0,0.7,0.1,1c0.1,0.4,0.1,0.8,0.2,1.2c0.1,0.4,0.2,0.8,0.3,1.1c0.1,0.4,0.3,0.7,0.5,1
	s0.5,0.5,0.8,0.7c0.3,0.2,0.7,0.3,1.1,0.3c0.6,0,1.1-0.2,1.6-0.4c0.4-0.3,0.6-0.8,0.6-1.5v-2.9h-1.2v-0.3h4.6v0.3H124l-0.1,5
	c-0.2-0.3-0.3-0.5-0.4-0.6c-0.2-0.1-0.3-0.1-0.4-0.1c-0.2,0.1-0.4,0.1-0.5,0.2c-0.2,0.1-0.4,0.2-0.6,0.2c-0.4,0.1-0.8,0.3-1.2,0.4
	c-0.4,0.1-0.9,0.1-1.2,0.1c-0.9,0-1.6-0.1-2.2-0.4c-0.7-0.3-1.2-0.6-1.7-1.1c-0.5-0.5-0.9-1.1-1.1-1.7c-0.3-0.7-0.4-1.4-0.4-2.3
	c0-0.8,0.1-1.5,0.4-2.2c0.3-0.7,0.6-1.3,1.1-1.9c0.5-0.5,1-1,1.7-1.3c0.7-0.3,1.4-0.5,2.2-0.5c0.3,0,0.6,0.1,0.9,0.1
	c0.3,0.1,0.5,0.2,0.8,0.3c0.2,0.1,0.4,0.2,0.7,0.3c0.2,0.1,0.4,0.1,0.6,0.1s0.3-0.1,0.4-0.2c0.1-0.1,0.1-0.2,0.1-0.4h0.4v3.5
	L123.1,172.2L123.1,172.2z M135,179.5h1.2v0.3h-4.5v-0.3h1.1v-10.7h-1.1v-0.3h5.8c0.4,0,0.9,0.1,1.3,0.1c0.4,0.1,0.8,0.2,1.1,0.4
	s0.6,0.5,0.8,0.9c0.2,0.4,0.3,0.8,0.3,1.3c0,0.4-0.1,0.8-0.2,1c-0.1,0.3-0.3,0.5-0.6,0.8c-0.2,0.2-0.5,0.4-0.9,0.5
	c-0.3,0.1-0.6,0.2-1,0.3v0.2c0.5,0.1,1,0.3,1.3,0.6c0.3,0.3,0.5,0.6,0.7,0.9c0.2,0.4,0.3,0.7,0.3,1.1c0.1,0.4,0.1,0.8,0.1,1.1
	c0,0.3,0.1,0.5,0.1,0.7c0.1,0.2,0.1,0.4,0.1,0.6c0.1,0.2,0.1,0.3,0.2,0.4c0.1,0.1,0.3,0.1,0.4,0.1c0.1,0,0.2,0,0.3-0.1
	c0.1-0.1,0.2-0.1,0.3-0.1c0,0,0.1,0,0.1-0.1l0.1,0.3c-0.2,0.1-0.4,0.2-0.7,0.2c-0.2,0.1-0.4,0.1-0.7,0.1c-0.6,0-1-0.1-1.4-0.2
	c-0.4-0.2-0.6-0.4-0.8-0.6c-0.2-0.3-0.3-0.6-0.4-0.9c-0.1-0.4-0.1-0.8-0.2-1.2c0-0.1-0.1-0.3-0.1-0.4c0-0.2-0.1-0.3-0.1-0.4
	c-0.1-0.5-0.2-0.9-0.4-1.1c-0.2-0.3-0.4-0.5-0.8-0.6c-0.3-0.1-0.6-0.2-1-0.2c-0.4-0.1-0.8-0.1-1.2-0.1v5.4H135z M135,168.9v5h0.6
	c0.4,0,0.8-0.1,1.1-0.1c0.3-0.1,0.7-0.2,1-0.4c0.3-0.2,0.5-0.4,0.7-0.8s0.3-0.7,0.3-1.1c0-0.5-0.1-0.9-0.2-1.2
	c-0.2-0.3-0.4-0.6-0.6-0.8c-0.3-0.2-0.6-0.3-1-0.4c-0.4-0.1-0.8-0.1-1.2-0.1L135,168.9L135,168.9z M148.6,179.5
	c0.3,0,0.5-0.1,0.7-0.1c0.2-0.1,0.3-0.1,0.4-0.2s0.2-0.2,0.3-0.4c0.1-0.2,0.2-0.4,0.3-0.7c0.6-1.7,1.2-3.3,1.7-4.9
	c0.6-1.7,1.2-3.3,1.7-4.9h0.7l4.2,11.1h0.9v0.3h-4.7v-0.3h1.3l-1.2-3.4h-3.4l-0.1,0.3c-0.1,0.2-0.2,0.4-0.2,0.6
	c-0.1,0.3-0.2,0.5-0.3,0.8c-0.1,0.3-0.2,0.5-0.2,0.7c-0.1,0.2-0.1,0.4-0.1,0.4c0,0.1,0.1,0.2,0.2,0.3c0.1,0.1,0.3,0.1,0.4,0.1
	c0.2,0.1,0.4,0.1,0.5,0.1c0.2,0,0.3,0,0.4,0h0.1v0.3h-3.5L148.6,179.5L148.6,179.5L148.6,179.5z M151.6,175.9h3.3l-1.7-4.4
	L151.6,175.9z M169.4,179.5h1.2v0.3h-4.7v-0.3h1.2v-10.7h-1.2v-0.3h4.6c0.5,0,1,0.1,1.6,0.1c0.5,0.1,1.1,0.2,1.6,0.4
	c0.4,0.2,0.9,0.5,1.2,0.9s0.4,0.9,0.4,1.6c0,0.6-0.1,1.1-0.4,1.5c-0.3,0.4-0.6,0.8-1,1s-0.9,0.4-1.4,0.5c-0.5,0.1-1,0.2-1.5,0.2
	c-0.3,0-0.5-0.1-0.8-0.1c-0.3-0.1-0.5-0.1-0.8-0.3L169.4,179.5L169.4,179.5z M169.5,174.2c0.4,0.2,0.8,0.3,1.2,0.3
	c0.4,0,0.8-0.1,1.1-0.2c0.3-0.1,0.6-0.3,0.8-0.6c0.2-0.3,0.4-0.5,0.5-0.9c0.1-0.3,0.2-0.7,0.2-1.1c0-0.5-0.1-1-0.2-1.4
	c-0.2-0.4-0.4-0.7-0.7-0.9c-0.3-0.2-0.6-0.4-1-0.5c-0.4-0.1-0.9-0.2-1.3-0.2c-0.1,0-0.1,0-0.2,0.1c-0.1,0-0.2,0.1-0.3,0.1
	L169.5,174.2z M185.8,174.3v5.3h1.3v0.3h-4.9v-0.3h1.2l-0.1-10.7h-1.1v-0.3h4.9v0.3h-1.3v5h5.4v-5H190v-0.3h4.9v0.3h-1.2v10.7h1.2
	v0.3H190v-0.3h1.2v-5.3H185.8L185.8,174.3z M207.8,168.6h3.5v0.3h-0.4c-0.2,0-0.3,0-0.4,0.1c-0.1,0.1-0.2,0.1-0.3,0.2
	c-0.1,0.1-0.2,0.2-0.3,0.4c-0.1,0.2-0.2,0.4-0.3,0.6l-2.5,5.3v4.2h1.2v0.3h-4.7v-0.3h1.2v-3.8l-3.1-6.9h-1.1v-0.3h4.7v0.3h-1.2
	l2.6,5.8l1.9-4c0.1-0.1,0.1-0.2,0.1-0.3c0.1-0.1,0.1-0.3,0.2-0.4c0.1-0.1,0.1-0.3,0.1-0.4c0.1-0.1,0.1-0.2,0.1-0.3
	c0-0.2-0.1-0.3-0.3-0.4c-0.2-0.1-0.4-0.1-0.7-0.1c-0.1,0-0.2,0-0.3,0c-0.1,0-0.2,0-0.2,0h-0.1v-0.3L207.8,168.6L207.8,168.6z"/>
</svg>
