<?xml version="1.0" encoding="utf-8"?>
<!-- Generator: Adobe Illustrator 23.0.2, SVG Export Plug-In . SVG Version: 6.00 Build 0)  -->
<svg version="1.1" id="Capa_1" xmlns="http://www.w3.org/2000/svg" xmlns:xlink="http://www.w3.org/1999/xlink" x="0px" y="0px"
	 viewBox="0 0 700 700" style="enable-background:new 0 0 700 700;" xml:space="preserve">
<style type="text/css">
	.st0{fill:none;
	stroke:#FFFFFF;
	stroke-width:6;
	stroke-dasharray: 800;
	stroke-dashoffset: 0;
	stroke-miterlimit:10;
		-webkit-animation: animacion 7s forwards;
		-moz-animation: animacion 7s forwards;
		-o-animation: animacion 7s forwards;
		animation: animacion 7s forwards;
	}
@-webkit-keyframes animacion {
			0% {
				stroke-dashoffset: 800;
			}
			90% {
				stroke: #fff;
			}

			100% {
				stroke-dashoffset: 0;
				stroke: #fff;
			}
		}

		@-keyframes animacion {
			0% {
				stroke-dashoffset: 800;
			}
			90% {
				stroke: #fff;
			}

			100% {
				stroke-dashoffset: 0;
				stroke: #fff;
			}
		}

	.st1{
		fill:transparent;
			-webkit-animation: texto 2s forwards 5s;
			-moz-animation: texto 2s forwards 5s;
			-o-animation: texto 2s forwards 5s;
			animation: texto 2s forwards 5s;
		}
		@-webkit-keyframes texto {
			from {
				fill: transparent;
			}

			to {
				fill: #fff;
			}
		}

		@-keyframes texto {
			from {
				fill: transparent;
			}

			to {
				fill: #fff;
			}
		}
</style>
<path id="contorno" class="st0" d="M671.8,554.2v87.7H29.2v-87.7 M29.2,141.5V58.8h642.6v82.7"/>
<path id="EC" class="st1" d="M191.4,438.4H234c13.5,0,26-0.4,37.5-1.1c11.6-0.7,21.6-3.5,30.1-8.3s15.2-12.5,20.2-23.1
	c5-10.5,7.5-25.6,7.5-45.2h7.5v86.5H116.3v-7.5h22v-278h-22v-7.5h220l0.4,72h-7.5c-2.3-16.1-6.5-28.5-12.5-37.1s-13.3-14.9-22-18.9
	c-8.6-4-18.4-6.1-29.4-6.6c-11-0.4-22.8-0.7-35.4-0.7h-38.6v129.6h11.4c9.1,0,17.1-0.3,23.9-0.9c6.9-0.6,12.7-2.5,17.3-5.7
	c4.7-3.2,8.2-8.3,10.5-15.2c2.3-6.9,3.7-16.5,4-28.8h7v110.7h-7c-0.3-11.1-1.4-20-3.3-26.6c-1.9-6.6-4.6-11.6-8.1-14.9
	c-3.5-3.4-7.8-5.6-12.7-6.6c-5-1-10.7-1.5-17.1-1.5h-25.9v135.4H191.4z M562.1,447.2c0-2.6-0.2-5.4-0.4-8.3
	c-0.3-2.9-0.9-5.6-1.8-8.1c-0.9-2.5-2.1-4.6-3.7-6.4c-1.6-1.8-3.7-2.6-6.4-2.6c-1.5,0-3.4,0.7-5.9,2.2s-5.3,3.4-8.6,5.7
	c-5.9,4.7-13.4,9.6-22.6,14.7c-9.2,5.1-20.1,7.7-32.7,7.7c-17.3,0-32.9-3.9-46.8-11.6c-13.9-7.8-25.7-18.2-35.4-31.4
	s-17.1-28.6-22.4-46.3c-5.3-17.7-7.9-36.5-7.9-56.4s2.6-39.3,7.7-58.2s12.5-35.6,22.2-50.1s21.5-26.1,35.6-34.9
	c14.1-8.8,30.2-13.2,48.3-13.2c7.9,0,14.9,1.2,21.1,3.7c6.1,2.5,11.9,5.2,17.1,8.1c5.3,2.9,10.2,5.6,14.9,8.1s9.7,3.7,14.9,3.7
	c3.5,0,6.1-0.9,7.9-2.9c1.8-1.9,2.9-4.9,3.5-9h7.9v88.7h-8.8c-0.6-10.5-2.9-21.1-6.8-31.8c-4-10.7-9-20.3-15.2-29
	c-6.1-8.6-13.4-15.7-21.7-21.1c-8.3-5.4-17.2-8.1-26.6-8.1s-17.4,2.5-24.2,7.5c-6.7,5-12.4,11.6-17.1,19.8s-8.4,17.5-11.2,27.9
	c-2.8,10.4-5,20.9-6.6,31.6s-2.6,21.2-3.1,31.6c-0.4,10.4-0.7,19.5-0.7,27.4c0,14.9,0.9,30.1,2.6,45.5c1.8,15.4,5.3,29.4,10.5,42.2
	c5.3,12.7,12.7,23.1,22.4,31.2c9.7,8.1,22.4,12.1,38.2,12.1c8.5,0,16.2-3.1,23.3-9.4c7-6.3,13.2-14.2,18.4-23.7
	c5.3-9.5,9.6-19.8,13-30.7c3.4-11,5.6-21.1,6.8-30.5h6.6v104.5h-6.3V447.2z"/>
<path id="foto" class="st1" d="M78.8,543.7h3.9v0.9H68.1v-0.9h3.7v-33h-3.7v-0.9h14.4c1.6,0,3.2,0.1,4.9,0.4
	c1.7,0.2,3.3,0.7,4.8,1.4c1.4,0.7,2.6,1.7,3.6,2.9s1.4,2.9,1.4,4.8c0,1.8-0.4,3.3-1.3,4.6c-0.8,1.3-1.9,2.3-3.2,3.1
	c-1.3,0.8-2.7,1.4-4.3,1.7c-1.6,0.4-3.1,0.5-4.7,0.5c-0.8,0-1.6-0.1-2.4-0.2c-0.8-0.1-1.6-0.4-2.4-0.9L78.8,543.7z M78.9,527.3
	c1.1,0.7,2.4,1,3.8,1c1.2,0,2.3-0.2,3.3-0.6s1.8-1,2.5-1.8s1.2-1.6,1.6-2.7c0.4-1,0.6-2.1,0.6-3.3c0-1.7-0.2-3.1-0.7-4.3
	s-1.2-2.1-2.1-2.9c-0.9-0.7-2-1.3-3.2-1.6c-1.3-0.3-2.6-0.5-4.2-0.5c-0.1,0-0.3,0-0.6,0.1c-0.3,0-0.6,0.1-0.9,0.1L78.9,527.3z
	 M129.4,527.4v16.3h4v0.9h-15.1v-0.9h3.7l-0.3-33h-3.4v-0.9h15.1v0.9h-4v15.6h16.7v-15.6h-3.9v-0.9h15.1v0.9h-3.9v33h3.9v0.9h-15.1
	v-0.9h3.9v-16.3L129.4,527.4L129.4,527.4z M195.6,509.2c2.3,0,4.5,0.5,6.4,1.6c2,1.1,3.6,2.4,5.1,4.2s2.5,3.7,3.3,5.8
	c0.8,2.2,1.2,4.4,1.2,6.5c0,2.2-0.4,4.4-1.2,6.5s-1.9,4-3.3,5.7c-1.4,1.7-3.1,3-5.1,4.1c-2,1-4.1,1.6-6.4,1.6
	c-2.4,0-4.6-0.5-6.5-1.6s-3.7-2.5-5.1-4.2c-1.4-1.7-2.5-3.7-3.3-5.9s-1.2-4.4-1.2-6.7c0-2.2,0.4-4.3,1.3-6.4c0.8-2.1,2-4,3.5-5.7
	s3.2-3,5.1-4.1S193.4,509.2,195.6,509.2z M195.8,510c-1.3,0-2.4,0.3-3.4,0.9c-0.9,0.6-1.7,1.3-2.4,2.3s-1.2,2-1.6,3.2
	c-0.4,1.2-0.7,2.4-0.9,3.7s-0.4,2.5-0.5,3.8c-0.1,1.2-0.1,2.3-0.1,3.3s0,2.1,0.1,3.4c0.1,1.2,0.2,2.5,0.4,3.8s0.5,2.5,0.9,3.7
	s0.9,2.3,1.5,3.3s1.4,1.7,2.4,2.3s2.1,0.9,3.5,0.9s2.5-0.3,3.5-0.9s1.7-1.4,2.3-2.3c0.6-1,1.1-2,1.4-3.3s0.6-2.5,0.7-3.8
	c0.2-1.3,0.3-2.5,0.3-3.8c0-1.2,0.1-2.3,0.1-3.3c0-0.9,0-1.9-0.1-3.1c-0.1-1.2-0.2-2.4-0.4-3.6c-0.2-1.3-0.5-2.5-0.8-3.8
	c-0.3-1.2-0.8-2.4-1.5-3.3c-0.6-1-1.4-1.8-2.2-2.4C198,510.3,197,510,195.8,510z M245.1,510.7h-0.9c-2,0-3.6,0.1-4.9,0.4
	c-1.3,0.3-2.3,0.7-3.1,1.5c-0.8,0.7-1.3,1.7-1.6,2.9s-0.5,2.8-0.5,4.8H233c0.1-1.8,0.1-3.6,0.2-5.3s0.1-3.4,0.2-5.2h30.5
	c0,1.8,0.1,3.5,0.1,5.2s0.1,3.5,0.1,5.3h-1c0-2.1-0.2-3.8-0.5-5.1s-0.9-2.2-1.7-2.9c-0.8-0.7-1.9-1.1-3.3-1.3
	c-1.4-0.2-3.2-0.3-5.3-0.3v33h4.2v0.9h-15.9v-0.9h4.4v-33H245.1z M301.8,509.2c2.3,0,4.5,0.5,6.4,1.6c2,1.1,3.6,2.4,5.1,4.2
	s2.5,3.7,3.3,5.8c0.8,2.2,1.2,4.4,1.2,6.5c0,2.2-0.4,4.4-1.2,6.5c-0.8,2.1-1.9,4-3.3,5.7s-3.1,3-5.1,4.1c-2,1-4.1,1.6-6.4,1.6
	c-2.4,0-4.6-0.5-6.5-1.6s-3.7-2.5-5.1-4.2s-2.5-3.7-3.3-5.9s-1.2-4.4-1.2-6.7c0-2.2,0.4-4.3,1.3-6.4c0.8-2.1,2-4,3.5-5.7
	s3.2-3,5.1-4.1S299.6,509.2,301.8,509.2z M301.9,510c-1.3,0-2.4,0.3-3.4,0.9c-0.9,0.6-1.7,1.3-2.4,2.3c-0.7,1-1.2,2-1.6,3.2
	s-0.7,2.4-0.9,3.7c-0.2,1.3-0.4,2.5-0.5,3.8c-0.1,1.2-0.1,2.3-0.1,3.3s0,2.1,0.1,3.4c0.1,1.2,0.2,2.5,0.4,3.8
	c0.2,1.3,0.5,2.5,0.9,3.7s0.9,2.3,1.5,3.3s1.4,1.7,2.4,2.3s2.1,0.9,3.5,0.9s2.5-0.3,3.5-0.9s1.7-1.4,2.3-2.3c0.6-1,1.1-2,1.4-3.3
	s0.6-2.5,0.7-3.8c0.2-1.3,0.3-2.5,0.3-3.8c0-1.2,0.1-2.3,0.1-3.3c0-0.9,0-1.9-0.1-3.1c-0.1-1.2-0.2-2.4-0.4-3.6
	c-0.2-1.3-0.5-2.5-0.8-3.8c-0.3-1.2-0.8-2.4-1.5-3.3c-0.6-1-1.4-1.8-2.2-2.4C304.2,510.3,303.2,510,301.9,510z M369.5,521h-1.2
	c-0.2-1.3-0.5-2.5-1-3.8c-0.5-1.2-1.1-2.3-1.8-3.2c-0.7-0.9-1.6-1.7-2.7-2.2c-1.1-0.6-2.3-0.8-3.7-0.8c-2.3,0-4.1,0.6-5.4,1.7
	c-1.3,1.1-2.3,2.5-3,4.2s-1.1,3.4-1.3,5.3s-0.3,3.6-0.4,5.1c0,1,0,2.1,0.1,3.2c0.1,1.2,0.2,2.4,0.5,3.6c0.2,1.2,0.6,2.4,1,3.5
	s1,2.2,1.7,3c0.7,0.9,1.5,1.6,2.5,2.1s2.1,0.8,3.5,0.8c1.9,0,3.4-0.5,4.8-1.4c1.3-0.9,2-2.4,2-4.5V529h-3.6v-0.9h14.4v0.9h-3.6
	l-0.1,15.3c-0.5-0.9-1-1.5-1.4-1.8c-0.5-0.3-0.9-0.4-1.4-0.3c-0.5,0.1-1.1,0.3-1.7,0.5c-0.6,0.3-1.3,0.5-2,0.7
	c-1.2,0.4-2.4,0.8-3.7,1.1c-1.3,0.3-2.6,0.4-3.9,0.4c-2.6,0-4.9-0.4-6.9-1.2c-2.1-0.8-3.8-2-5.3-3.5s-2.6-3.3-3.4-5.4
	c-0.8-2.1-1.2-4.4-1.2-7c0-2.4,0.4-4.7,1.2-6.9c0.8-2.2,1.9-4.2,3.4-5.9s3.2-3,5.3-4s4.3-1.5,6.8-1.5c1,0,1.9,0.1,2.7,0.4
	c0.8,0.3,1.6,0.6,2.3,0.9s1.4,0.6,2.1,0.9s1.3,0.4,2,0.4c0.6,0,0.9-0.2,1.1-0.5s0.3-0.7,0.3-1.2h1.2V521H369.5z M406.2,543.7h3.8
	v0.9h-14v-0.9h3.4v-33H396v-0.9h17.8c1.4,0,2.7,0.1,4,0.4s2.5,0.7,3.5,1.4c1,0.6,1.8,1.5,2.5,2.6c0.6,1.1,1,2.4,1,4
	c0,1.2-0.2,2.3-0.6,3.2s-1,1.7-1.8,2.3c-0.7,0.6-1.6,1.2-2.6,1.6c-1,0.4-2,0.7-3.1,0.9v0.6c1.7,0.4,3.1,1,4,1.8
	c1,0.9,1.7,1.8,2.2,2.9c0.5,1.1,0.8,2.2,0.9,3.4s0.2,2.3,0.2,3.4c0,0.8,0.1,1.5,0.2,2.2s0.2,1.3,0.3,1.8c0.2,0.5,0.4,0.9,0.7,1.2
	c0.3,0.3,0.8,0.4,1.4,0.4c0.4,0,0.7,0,1-0.1s0.7-0.2,1-0.3c0,0,0.1,0,0.1-0.1l0.4,0.8c-0.7,0.3-1.4,0.5-2.1,0.6s-1.4,0.2-2.1,0.2
	c-1.8,0-3.2-0.2-4.3-0.7s-1.8-1.1-2.4-1.9c-0.6-0.8-0.9-1.8-1.1-2.9c-0.2-1.1-0.3-2.3-0.5-3.7c0-0.4-0.1-0.9-0.1-1.3
	c0-0.5-0.1-0.9-0.2-1.4c-0.2-1.5-0.6-2.7-1.3-3.5c-0.6-0.8-1.4-1.5-2.3-1.9s-2-0.6-3.1-0.7c-1.2-0.1-2.3-0.1-3.6-0.1v16.8H406.2z
	 M406.2,510.7v15.4h2c1.2,0,2.3-0.1,3.4-0.4c1.1-0.3,2.1-0.7,3-1.3s1.6-1.4,2.1-2.3c0.5-1,0.8-2.1,0.8-3.5c0-1.6-0.2-2.8-0.7-3.9
	c-0.5-1-1.2-1.8-2-2.4c-0.9-0.6-1.9-1-3-1.2c-1.2-0.2-2.4-0.3-3.7-0.3L406.2,510.7L406.2,510.7z M448.5,543.7c0.9,0,1.6-0.1,2.2-0.2
	c0.6-0.1,1-0.3,1.4-0.6s0.7-0.7,0.9-1.2c0.2-0.5,0.5-1.2,0.9-2.1c1.8-5.1,3.6-10.1,5.4-15.2c1.8-5.1,3.6-10.1,5.4-15.2h2.1
	l13.1,34.4h2.7v0.9h-14.7v-0.9h4.1l-3.9-10.5h-10.7l-0.4,1c-0.2,0.5-0.5,1.2-0.7,2c-0.3,0.8-0.6,1.6-0.8,2.4
	c-0.3,0.8-0.5,1.5-0.7,2.2s-0.3,1.1-0.3,1.4c0,0.4,0.2,0.7,0.6,0.9s0.9,0.4,1.4,0.4c0.5,0.1,1.1,0.1,1.6,0.1s1,0,1.3,0h0.1v0.9
	h-10.9v-0.7H448.5z M457.7,532.4h10.1l-5.2-13.7L457.7,532.4z M512.8,543.7h3.9v0.9H502v-0.9h3.7v-33H502v-0.9h14.4
	c1.6,0,3.2,0.1,4.9,0.4c1.7,0.2,3.3,0.7,4.8,1.4c1.4,0.7,2.6,1.7,3.6,2.9s1.4,2.9,1.4,4.8c0,1.8-0.4,3.3-1.3,4.6
	c-0.8,1.3-1.9,2.3-3.2,3.1s-2.7,1.4-4.3,1.7c-1.6,0.4-3.1,0.5-4.7,0.5c-0.8,0-1.6-0.1-2.4-0.2c-0.8-0.1-1.6-0.4-2.4-0.9V543.7z
	 M512.9,527.3c1.1,0.7,2.4,1,3.8,1c1.2,0,2.3-0.2,3.3-0.6s1.8-1,2.5-1.8s1.2-1.6,1.6-2.7c0.4-1,0.6-2.1,0.6-3.3
	c0-1.7-0.2-3.1-0.7-4.3s-1.2-2.1-2.1-2.9c-0.9-0.7-2-1.3-3.2-1.6c-1.3-0.3-2.6-0.5-4.2-0.5c-0.1,0-0.3,0-0.6,0.1
	c-0.3,0-0.6,0.1-0.9,0.1L512.9,527.3z M563.4,527.4v16.3h4v0.9h-15.1v-0.9h3.7l-0.3-33h-3.4v-0.9h15.1v0.9h-4v15.6h16.7v-15.6h-3.9
	v-0.9h15.1v0.9h-3.9v33h3.9v0.9h-15.1v-0.9h3.9v-16.3L563.4,527.4L563.4,527.4z M631.6,509.9h10.9v0.8h-1.3c-0.6,0-1,0-1.4,0.1
	s-0.7,0.3-1,0.5c-0.3,0.3-0.6,0.6-0.9,1.1c-0.3,0.5-0.6,1.1-1,1.9l-7.7,16.4v13h3.9v0.9h-14.5v-0.9h3.9V532l-9.7-21.2h-3.3v-0.9
	h14.7v0.9h-3.9l8.2,18l6-12.3c0.1-0.2,0.3-0.5,0.4-0.9c0.2-0.4,0.3-0.8,0.5-1.3c0.2-0.4,0.3-0.9,0.4-1.2s0.2-0.7,0.2-1
	c0-0.6-0.3-1-1-1.1s-1.3-0.2-2.1-0.2c-0.3,0-0.6,0-0.8,0s-0.5,0-0.7,0h-0.1v-0.9H631.6z"/>
</svg>
